<svg width="502" height="443" viewBox="0 0 502 443" fill="none" xmlns="http://www.w3.org/2000/svg">
<path d="M374.673 576.563C443.871 556.87 503.422 512.438 542.006 451.713C580.591 390.988 595.52 318.204 583.955 247.193C572.39 176.182 535.138 111.896 479.28 66.5517C423.421 21.2078 352.849 -2.03238 280.978 1.24822C209.106 4.52883 140.945 34.1016 89.4497 84.3457C37.9542 134.59 6.71381 202.003 1.66635 273.772C-3.38112 345.541 18.1162 416.663 62.0723 473.62C106.028 530.577 169.379 569.399 240.084 582.707L267.082 439.269C231.548 432.581 199.711 413.071 177.62 384.447C155.53 355.822 144.726 320.079 147.263 284.011C149.8 247.943 165.5 214.064 191.379 188.814C217.259 163.563 251.513 148.701 287.633 147.053C323.753 145.404 359.219 157.083 387.291 179.871C415.363 202.659 434.085 234.967 439.897 270.654C445.709 306.341 438.206 342.92 418.815 373.437C399.424 403.955 369.496 426.284 334.72 436.182L374.673 576.563Z" fill="white" fill-opacity="0.1"/>
</svg>
